<?xml version="1.0" standalone="no"?>
<!DOCTYPE svg PUBLIC "-//W3C//DTD SVG 20010904//EN"
 "http://www.w3.org/TR/2001/REC-SVG-20010904/DTD/svg10.dtd">
<svg version="1.0" xmlns="http://www.w3.org/2000/svg"
 width="762.000000pt" height="762.000000pt" viewBox="0 0 762.000000 762.000000"
 preserveAspectRatio="xMidYMid meet">

<g transform="translate(0.000000,762.000000) scale(0.100000,-0.100000)"
fill="#000000" stroke="none">
<path d="M2935 6893 c-158 -19 -313 -88 -400 -177 -103 -106 -151 -229 -162
-416 -13 -232 65 -423 224 -550 63 -50 160 -96 232 -111 31 -6 62 -13 69 -15
14 -4 -58 -148 -228 -459 -15 -27 -48 -88 -73 -135 -54 -102 -181 -340 -248
-466 -27 -50 -49 -94 -49 -98 0 -3 57 -6 128 -6 l128 0 103 203 c57 111 121
234 141 272 20 39 105 204 189 367 l152 297 142 3 142 3 3 101 3 101 -223 6
c-268 8 -345 24 -454 92 -128 81 -188 237 -164 422 24 180 119 286 305 339 51
15 117 18 443 22 l382 3 0 -1115 0 -1116 105 0 105 0 2 578 3 577 575 0 575 0
5 -575 5 -575 108 -3 107 -3 0 576 c0 453 -3 575 -12 576 -7 0 -57 0 -110 -1
l-98 -1 0 115 0 116 -577 2 -578 3 -3 423 -2 422 -105 0 -105 0 0 105 0 105
-377 -1 c-208 -1 -391 -4 -408 -6z"/>
<path d="M5092 6373 l3 -528 105 0 105 0 3 528 2 527 -110 0 -110 0 2 -527z"/>
<path d="M2247 2486 c-147 -54 -170 -250 -39 -341 35 -24 53 -29 100 -30 73 0
116 21 120 58 l3 29 -31 -24 c-42 -31 -126 -32 -166 -2 -51 38 -68 70 -68 129
0 59 17 91 67 129 40 30 126 28 167 -3 l31 -23 -3 29 c-6 50 -106 77 -181 49z"/>
<path d="M4427 2486 c-148 -55 -170 -250 -39 -341 36 -25 53 -30 100 -29 75 0
116 20 120 58 l4 29 -27 -21 c-60 -48 -151 -37 -204 23 -27 31 -31 43 -31 94
0 69 26 116 80 144 43 22 112 16 153 -14 l28 -21 -3 29 c-6 50 -106 77 -181
49z"/>
<path d="M1327 2459 c-8 -19 -40 -92 -72 -164 -82 -187 -79 -175 -51 -175 19
0 27 10 43 53 l20 52 77 3 76 3 24 -56 c19 -41 30 -55 45 -55 12 0 21 2 21 3
0 9 -153 353 -160 361 -5 5 -15 -6 -23 -25z m47 -115 c14 -31 26 -60 26 -65 0
-5 -25 -9 -55 -9 -30 0 -55 2 -55 4 0 2 7 21 16 42 9 22 20 49 25 62 5 12 11
22 13 22 3 0 16 -25 30 -56z"/>
<path d="M1710 2306 c0 -179 1 -186 20 -186 18 0 20 7 20 85 0 47 3 85 8 85 4
-1 35 -39 70 -85 50 -69 67 -85 88 -85 20 0 24 3 17 13 -5 6 -35 44 -66 83
-32 39 -57 74 -57 78 0 3 11 6 25 6 14 0 37 12 52 26 22 22 25 32 20 71 -7 69
-31 87 -122 91 l-75 4 0 -186z m142 127 c22 -20 24 -66 2 -87 -9 -10 -33 -16
-60 -16 l-44 0 0 60 0 60 42 0 c24 0 49 -7 60 -17z"/>
<path d="M2669 2478 c-4 -46 0 -351 5 -355 3 -3 12 -3 21 0 12 5 15 25 15 97
l0 91 98 -3 97 -3 -2 -80 c-3 -86 5 -112 31 -102 14 6 16 31 16 187 l0 181
-22 -3 c-21 -3 -23 -9 -24 -58 -1 -30 -2 -61 -3 -67 -1 -10 -27 -13 -96 -13
l-94 0 -3 67 c-2 55 -6 68 -20 71 -10 2 -18 -2 -19 -10z"/>
<path d="M3192 2308 c3 -165 5 -183 21 -186 16 -3 17 11 17 182 0 180 -1 186
-20 186 -20 0 -20 -5 -18 -182z"/>
<path d="M3440 2470 c0 -17 7 -20 50 -20 l50 0 2 -162 c3 -155 4 -163 23 -163
19 0 20 8 23 163 l2 162 50 0 c43 0 50 3 50 20 0 19 -7 20 -125 20 -118 0
-125 -1 -125 -20z"/>
<path d="M3898 2485 c-10 -10 -9 -338 0 -353 6 -9 33 -12 98 -10 75 3 89 6 92
21 3 15 -6 17 -72 17 l-76 0 0 70 0 69 72 3 c60 2 73 6 76 21 3 15 -6 17 -72
17 l-76 0 0 55 0 55 76 0 c66 0 75 2 72 18 -3 14 -17 17 -94 20 -49 1 -93 0
-96 -3z"/>
<path d="M4810 2470 c0 -17 6 -20 50 -20 l50 0 0 -165 c0 -158 1 -165 20 -165
19 0 20 7 20 165 l0 165 56 0 c47 0 55 3 52 18 -3 15 -18 17 -126 20 -117 2
-122 2 -122 -18z"/>
<path d="M5260 2353 c0 -111 3 -145 18 -173 43 -88 190 -93 242 -8 17 29 20
50 20 176 0 134 -1 142 -19 142 -18 0 -20 -10 -23 -146 -3 -146 -3 -146 -31
-170 -19 -16 -40 -24 -67 -24 -27 0 -48 8 -67 24 -28 24 -28 24 -31 170 -3
136 -5 146 -23 146 -18 0 -19 -8 -19 -137z"/>
<path d="M5790 2305 c0 -172 1 -186 18 -183 14 3 18 17 22 86 l5 84 21 -24
c11 -12 42 -51 68 -85 29 -39 54 -63 67 -63 10 0 19 4 19 9 0 5 -27 42 -60 84
-33 41 -60 78 -60 81 0 3 9 6 21 6 51 0 86 53 75 113 -10 55 -37 71 -122 75
l-74 4 0 -187z m142 128 c22 -20 23 -61 1 -85 -11 -12 -30 -18 -60 -18 l-43 0
0 60 0 60 42 0 c24 0 49 -7 60 -17z"/>
<path d="M6220 2305 l0 -185 95 0 c88 0 95 1 95 20 0 18 -7 20 -75 20 l-75 0
0 70 0 69 72 3 c60 2 73 6 76 21 3 15 -6 17 -72 17 l-76 0 0 55 0 55 75 0 c68
0 75 2 75 20 0 19 -7 20 -95 20 l-95 0 0 -185z"/>
<path d="M3162 1855 c-75 -39 -106 -93 -100 -180 3 -53 9 -71 34 -101 42 -53
88 -74 157 -74 67 0 102 15 145 64 44 51 59 106 43 163 -23 90 -83 141 -173
149 -44 5 -62 1 -106 -21z m166 -35 c53 -32 74 -75 69 -143 -3 -51 -8 -63 -39
-93 -126 -127 -323 24 -235 181 40 71 136 97 205 55z"/>
<path d="M5404 1871 c-47 -20 -68 -86 -44 -132 6 -10 42 -35 79 -54 38 -18 71
-41 75 -50 20 -52 -14 -105 -66 -105 -27 0 -68 30 -68 50 0 17 -30 11 -37 -7
-4 -11 4 -26 25 -45 27 -23 41 -28 83 -28 43 0 55 5 80 29 23 24 29 38 29 73
0 59 -20 83 -96 119 -68 33 -86 59 -64 98 13 25 71 29 90 6 15 -18 36 -20 46
-4 20 33 -82 71 -132 50z"/>
<path d="M6154 1861 c-69 -31 -109 -108 -102 -195 9 -106 78 -166 190 -166 51
0 73 5 99 23 38 25 79 97 79 139 l0 28 -75 0 c-60 0 -75 -3 -75 -15 0 -16 36
-28 71 -23 35 4 36 -32 4 -70 -56 -67 -154 -65 -214 3 -27 31 -31 43 -31 96 0
35 7 73 15 90 41 78 163 93 224 28 20 -22 22 -22 39 -5 16 16 16 18 -11 41
-53 46 -144 57 -213 26z"/>
<path d="M6640 1692 c0 -185 1 -192 20 -192 19 0 20 7 20 135 0 74 3 135 8
135 4 0 54 -52 111 -115 58 -63 115 -125 128 -137 l23 -21 0 186 c0 180 -1
187 -20 187 -19 0 -20 -7 -20 -137 l0 -138 -63 65 c-34 36 -95 101 -135 144
l-72 80 0 -192z"/>
<path d="M679 1863 c-3 -27 2 -357 6 -361 2 -2 11 -2 20 1 13 5 15 33 15 187
0 173 -1 180 -20 180 -11 0 -20 -3 -21 -7z"/>
<path d="M962 1688 c3 -165 5 -183 21 -186 15 -3 17 8 17 132 0 75 4 136 8
136 4 0 63 -61 131 -135 68 -74 125 -135 127 -135 2 0 4 83 4 185 0 178 -1
185 -20 185 -19 0 -20 -7 -20 -137 l0 -138 -48 50 c-26 28 -83 89 -126 138
-44 48 -83 87 -88 87 -5 0 -7 -82 -6 -182z"/>
<path d="M1480 1850 c0 -17 7 -20 50 -20 l50 0 0 -165 c0 -158 1 -165 20 -165
19 0 20 7 20 165 l0 165 55 0 c48 0 55 2 55 20 0 19 -7 20 -125 20 -118 0
-125 -1 -125 -20z"/>
<path d="M1932 1688 l3 -183 93 -3 c86 -3 92 -1 92 17 0 18 -8 20 -72 23 l-73
3 0 70 0 70 73 3 c64 3 72 5 72 22 0 18 -7 20 -75 20 l-75 0 0 50 0 50 75 0
c68 0 75 2 75 20 0 19 -7 20 -95 20 l-95 0 2 -182z"/>
<path d="M2352 1688 c3 -175 4 -183 23 -183 18 0 20 7 22 78 1 70 7 98 16 86
2 -2 32 -41 66 -86 40 -55 69 -83 81 -83 11 0 20 4 20 9 0 5 -27 42 -60 84
-33 41 -60 78 -60 81 0 3 7 6 15 6 54 0 92 54 81 114 -11 56 -45 76 -133 76
l-73 0 2 -182z m150 122 c39 -48 6 -100 -62 -100 l-40 0 0 66 0 67 42 -6 c27
-4 49 -14 60 -27z"/>
<path d="M2790 1684 c0 -171 1 -185 18 -182 15 3 17 21 20 186 2 177 2 182
-18 182 -19 0 -20 -6 -20 -186z"/>
<path d="M3679 1868 c-6 -25 -6 -347 0 -357 5 -8 16 -11 25 -8 12 5 16 25 18
92 l3 86 68 -91 c45 -60 74 -90 87 -90 11 0 20 4 20 9 0 5 -27 42 -60 84 -33
41 -60 78 -60 81 0 3 9 6 21 6 35 0 79 53 79 95 0 27 -8 44 -29 66 -27 27 -35
29 -100 29 -39 0 -71 -1 -72 -2z m119 -39 c32 -11 48 -45 37 -80 -8 -23 -43
-39 -86 -39 l-29 0 0 65 c0 62 1 65 24 65 12 0 37 -5 54 -11z"/>
<path d="M4410 1684 l0 -187 90 6 c123 9 162 31 195 110 36 86 4 193 -70 234
-33 19 -56 23 -127 23 l-88 0 0 -186z m180 137 c43 -12 70 -65 70 -138 0 -60
-3 -68 -32 -97 -28 -28 -43 -34 -97 -39 -34 -4 -67 -4 -72 -1 -5 3 -9 68 -9
145 l0 139 58 -1 c31 -1 68 -4 82 -8z"/>
<path d="M4940 1685 l0 -186 92 3 c78 3 93 6 96 20 3 15 -7 18 -70 20 l-73 3
-3 73 -3 72 76 0 c67 0 76 2 73 18 -3 14 -16 18 -76 20 l-72 3 0 49 0 49 72 3
c60 2 73 6 76 21 3 15 -6 17 -92 17 l-96 0 0 -185z"/>
<path d="M5780 1685 c0 -178 1 -185 20 -185 19 0 20 7 20 185 0 178 -1 185
-20 185 -19 0 -20 -7 -20 -185z"/>
<path d="M2856 1253 c-3 -4 -6 -87 -6 -185 l0 -178 80 0 c72 0 84 3 105 24 44
45 45 108 1 149 -22 21 -23 22 -5 41 47 49 5 145 -64 147 -18 1 -48 3 -68 4
-21 2 -40 1 -43 -2z m142 -60 c33 -45 4 -93 -61 -100 l-47 -6 0 68 0 68 48 -7
c26 -3 52 -14 60 -23z m0 -149 c16 -11 22 -25 22 -53 0 -48 -17 -63 -80 -69
l-50 -5 0 72 0 71 43 0 c23 0 53 -7 65 -16z"/>
<path d="M3301 1251 c-19 -12 -11 -287 9 -319 32 -49 139 -69 200 -37 51 26
60 58 60 215 0 132 -1 140 -19 140 -18 0 -20 -10 -23 -146 -3 -139 -4 -147
-27 -165 -25 -21 -99 -26 -131 -9 -30 16 -40 66 -40 196 0 68 -4 125 -8 128
-4 2 -14 1 -21 -3z"/>
<path d="M4106 1252 c-3 -3 -6 -86 -6 -184 l0 -178 90 0 c83 0 90 1 90 20 0
18 -7 20 -65 20 l-65 0 0 159 c0 149 -1 159 -19 164 -11 3 -22 2 -25 -1z"/>
<path d="M4496 1253 c-3 -3 -6 -87 -6 -185 l0 -178 94 0 c80 0 98 3 127 23 57
38 79 81 79 154 0 127 -54 177 -201 187 -47 3 -89 3 -93 -1z m189 -55 c33 -15
65 -76 65 -124 0 -50 -34 -118 -66 -132 -14 -7 -52 -12 -84 -12 l-60 0 0 140
0 140 60 0 c32 0 71 -5 85 -12z"/>
<path d="M3820 1070 c0 -173 1 -180 20 -180 19 0 20 7 20 180 0 173 -1 180
-20 180 -19 0 -20 -7 -20 -180z"/>
</g>
</svg>
